PathFileType	4	(x/y/z)	S06_M20_T22
DataRate	CameraRate	NumFrames	NumMarkers	Units	OrigDataRate	OrigDataStartFrame	OrigNumFrames
240	240	7	51	mm	240	128	511
Frame#	Time	Sternum			R.Acromium			L.Acromium			Top.Head			R.ASIS			L.ASIS			R.PSIS			L.PSIS			R.Great.Tro			L.Great.Tro			R.Iliac.Crest			L.Iliac.Crest			V.Sacral			R.Thigh.Upper.Post			R.Thigh.Lower.Ant			R.Thigh.Lower.Post			R.Thigh.Upper.Ant			R.Knee.Lat			R.Knee.Med			R.Shank.Upper.Post			R.Shank.Lower.Ant			R.Shank.Lower.Post			R.Shank.Upper.Ant			R.Ankle.Lat			R.Ankle.Med			R.Heel.Upper			R.Heel.Med			R.Heel.Lat			R.Toe.Lat			R.Toe.Med			R.Toe.Tip			L.Thigh.Upper.Post			L.Thigh.Lower.Ant			L.Thigh.Lower.Post			L.Thigh.Upper.Ant			L.Knee.Lat			L.Knee.Med			L.Shank.Upper.Post			L.Shank.Lower.Ant			L.Shank.Lower.Post			L.Shank.Upper.Ant			L.Ankle.Lat			L.Ankle.Med			L.Heel.Upper			L.Heel.Med			L.Heel.Lat			L.Toe.Lat			L.Toe.Med			L.Toe.Tip			Cervical.Spine			Back			
		X1	Y1	Z1	X2	Y2	Z2	X3	Y3	Z3	X4	Y4	Z4	X5	Y5	Z5	X6	Y6	Z6	X7	Y7	Z7	X8	Y8	Z8	X9	Y9	Z9	X10	Y10	Z10	X11	Y11	Z11	X12	Y12	Z12	X13	Y13	Z13	X14	Y14	Z14	X15	Y15	Z15	X16	Y16	Z16	X17	Y17	Z17	X18	Y18	Z18	X19	Y19	Z19	X20	Y20	Z20	X21	Y21	Z21	X22	Y22	Z22	X23	Y23	Z23	X24	Y24	Z24	X25	Y25	Z25	X26	Y26	Z26	X27	Y27	Z27	X28	Y28	Z28	X29	Y29	Z29	X30	Y30	Z30	X31	Y31	Z31	X32	Y32	Z32	X33	Y33	Z33	X34	Y34	Z34	X35	Y35	Z35	X36	Y36	Z36	X37	Y37	Z37	X38	Y38	Z38	X39	Y39	Z39	X40	Y40	Z40	X41	Y41	Z41	X42	Y42	Z42	X43	Y43	Z43	X44	Y44	Z44	X45	Y45	Z45	X46	Y46	Z46	X47	Y47	Z47	X48	Y48	Z48	X49	Y49	Z49	X50	Y50	Z50	X51	Y51	Z51	

128	0.52917	-886.99	1280.7	308.9	-1025.6	1484.8	472.9	-1029.6	1483.1	123.03	-974.33	1800	296.02	-931.81	1042.2	427.47	-919.98	1040.3	174.14	NaN	NaN	NaN	-1127.4	1063.7	250.81	-981.72	963.86	476.18	-1028.5	974.56	117.88	-1021.4	1111.5	459.17	-994.74	1114.3	138.57	-1142.3	1025.4	292.4	-898.42	732.25	471.64	-811.31	679.44	435.77	-871.85	646.93	448.99	-832.34	766.74	450.93	-807.1	557.83	437.47	-794.13	564.46	307.94	-774.79	330.61	431.12	-693.46	290.83	422.2	-750.94	257.32	416.62	-719.05	362.67	434.44	-669.17	141.72	398.39	-645.04	163.91	319.33	-697.15	76.742	338.95	-668.59	59.872	309.08	-678.41	47.623	371.81	-526.75	116.22	443.29	-496.13	158.96	334.92	-454.25	195.75	393.07	-1043	718.98	149.69	-1013.8	627.46	204.78	-1083.6	639.66	170.41	-977.63	713.05	180.38	-1131.7	550.05	189.75	-1098.6	551	308.38	-1237.1	337.45	214.32	-1187.7	263.09	214.1	-1257.6	269.5	234.46	-1171.6	330.45	199.05	-1244.4	122.41	238.22	-1225.3	141.45	324.94	-1328.8	92.531	286.09	-1324.7	62.375	316.17	-1325	68.57	254.51	-1149.7	46.706	210	-1126.4	40.519	328.8	-1053.7	44.33	271.73	-1079.3	1535.3	297.34	-1134.7	1260.8	295.11
129	0.53333	-881.63	1279.9	309.05	-1020.4	1484	473.07	-1024.2	1482.4	123.17	-969.1	1799.3	296.3	-926.6	1041.3	427.55	-914.91	1039.5	174.21	NaN	NaN	NaN	-1122	1063	251.06	-976.65	962.95	476.27	-1023.6	973.94	118.02	-1015.9	1110.7	459.33	-989.56	1113.5	138.71	-1137.2	1024.7	292.64	-894.35	730.75	471.25	-807.45	677.86	435.33	-868.17	645.52	448.16	-828.22	765.15	450.94	-803.39	556.56	436.57	-790.1	563.54	306.99	-767.68	329.8	430.1	-685.66	291.24	421.37	-742.61	256.87	415.51	-712.43	362.7	433.65	-658.9	142.48	397.48	-634.72	165.22	318.58	-685.52	77.122	337.78	-656.54	60.821	307.95	-666.42	48.202	370.62	-516.17	119.14	443.01	-485.81	162.74	334.85	-444.76	200.08	393.34	-1039.4	718.64	149.66	-1010.4	626.89	204.58	-1080.3	639.47	170.36	-973.93	712.39	180.2	-1128.8	550.06	189.72	-1095.4	550.76	308.26	-1235.4	338.01	214.26	-1186.4	263.36	214.01	-1256.2	270.23	234.36	-1169.9	330.63	198.98	-1244	123.03	238.13	-1224.7	141.99	324.83	-1328.5	93.552	285.95	-1324.5	63.346	316.08	-1324.7	69.448	254.4	-1149.6	46.703	209.95	-1126.3	40.632	328.74	-1053.6	44.237	271.69	-1073.9	1534.7	297.47	-1129.1	1260	295.24
130	0.5375	-876.25	1279.1	309.21	-1015	1483.3	473.25	-1018.8	1481.7	123.33	-963.85	1798.6	296.58	-921.37	1040.4	427.63	-909.82	1038.6	174.27	NaN	NaN	NaN	-1116.7	1062.4	251.31	-971.56	962.07	476.37	-1018.6	973.33	118.17	-1010.5	1109.9	459.5	-984.37	1112.8	138.86	-1132.1	1024.1	292.89	-890.19	729.27	470.84	-803.55	676.32	434.88	-864.44	644.14	447.31	-824.05	763.58	450.94	-799.64	555.3	435.68	-786.07	562.64	306.06	-760.72	329.02	429.12	-678.07	291.63	420.54	-734.51	256.45	414.44	-705.95	362.71	432.87	-648.98	143.22	396.58	-624.77	166.48	317.84	-674.31	77.518	336.64	-644.94	61.766	306.84	-654.87	48.795	369.47	-505.99	121.96	442.75	-475.9	166.36	334.76	-435.64	204.21	393.56	-1035.6	718.32	149.63	-1007	626.35	204.39	-1076.8	639.29	170.31	-970.15	711.76	180.03	-1125.7	550.08	189.68	-1092.2	550.52	308.14	-1233.5	338.59	214.19	-1185	263.65	213.92	-1254.7	270.98	234.26	-1168.1	330.83	198.91	-1243.5	123.68	238.03	-1224	142.56	324.71	-1328.2	94.633	285.81	-1324.3	64.38	315.98	-1324.4	70.388	254.29	-1149.5	46.705	209.9	-1126.2	40.753	328.67	-1053.5	44.144	271.65	-1068.5	1534	297.62	-1123.5	1259.2	295.37
131	0.54167	-870.85	1278.3	309.37	-1009.7	1482.5	473.44	-1013.3	1481	123.49	-958.59	1797.9	296.87	-916.12	1039.5	427.72	-904.7	1037.8	174.33	NaN	NaN	NaN	-1111.3	1061.8	251.58	-966.44	961.19	476.47	-1013.6	972.75	118.32	-1004.9	1109.1	459.67	-979.17	1112	139.02	-1127.1	1023.6	293.14	-885.97	727.82	470.41	-799.59	674.81	434.43	-860.67	642.79	446.46	-819.85	762.05	450.92	-795.84	554.08	434.81	-782.03	561.75	305.15	-753.91	328.27	428.16	-670.68	291.98	419.71	-726.64	256.04	413.39	-699.6	362.7	432.09	-639.43	143.93	395.7	-615.2	167.68	317.1	-663.54	77.911	335.52	-633.81	62.686	305.77	-643.76	49.379	368.34	-496.22	124.65	442.48	-466.41	169.78	334.63	-426.9	208.11	393.74	-1031.8	718.01	149.61	-1003.5	625.84	204.19	-1073.3	639.12	170.25	-966.31	711.14	179.85	-1122.6	550.11	189.65	-1088.9	550.29	308.02	-1231.6	339.21	214.11	-1183.6	263.96	213.83	-1253.2	271.76	234.15	-1166.2	331.05	198.84	-1242.9	124.36	237.92	-1223.3	143.17	324.58	-1327.9	95.772	285.66	-1324	65.478	315.87	-1324.1	71.389	254.17	-1149.3	46.713	209.84	-1126.1	40.882	328.6	-1053.4	44.05	271.6	-1063.1	1533.3	297.78	-1117.9	1258.5	295.52
132	0.54583	-865.44	1277.5	309.54	-1004.4	1481.8	473.65	-1007.9	1480.3	123.66	-953.32	1797.2	297.16	-910.84	1038.6	427.82	-899.55	1037	174.39	NaN	NaN	NaN	-1106	1061.1	251.84	-961.29	960.34	476.58	-1008.6	972.19	118.48	-999.39	1108.3	459.85	-973.96	1111.3	139.18	-1122	1023	293.4	-881.67	726.41	469.96	-795.57	673.34	433.98	-856.82	641.48	445.61	-815.58	760.56	450.89	-791.98	552.9	433.97	-777.98	560.88	304.26	-747.25	327.54	427.24	-663.51	292.28	418.89	-719	255.64	412.38	-693.38	362.65	431.32	-630.25	144.59	394.83	-606.02	168.79	316.35	-653.22	78.281	334.43	-623.16	63.56	304.71	-633.12	49.933	367.24	-486.87	127.18	442.2	-457.33	172.99	334.46	-418.53	211.75	393.85	-1028	717.7	149.58	-999.88	625.35	204	-1069.7	638.96	170.19	-962.4	710.55	179.67	-1119.4	550.13	189.61	-1085.5	550.06	307.9	-1229.6	339.85	214.02	-1182.1	264.3	213.73	-1251.6	272.57	234.04	-1164.3	331.28	198.76	-1242.4	125.09	237.8	-1222.5	143.81	324.45	-1327.5	96.967	285.51	-1323.8	66.643	315.76	-1323.8	72.454	254.05	-1149.2	46.725	209.79	-1125.9	41.018	328.54	-1053.3	43.955	271.56	-1057.7	1532.7	297.94	-1112.3	1257.7	295.69
133	0.55	-860	1276.8	309.71	-998.97	1481.1	473.86	-1002.4	1479.7	123.84	-948.04	1796.6	297.46	-905.54	1037.8	427.92	-894.37	1036.3	174.44	NaN	NaN	NaN	-1100.6	1060.5	252.11	-956.12	959.52	476.68	-1003.5	971.66	118.64	-993.81	1107.6	460.03	-968.73	1110.6	139.35	-1117	1022.4	293.66	-877.3	725.05	469.51	-791.48	671.93	433.54	-852.9	640.22	444.78	-811.26	759.12	450.84	-788.05	551.75	433.15	-773.89	560.03	303.41	-740.75	326.83	426.35	-656.54	292.52	418.08	-711.6	255.25	411.4	-687.29	362.56	430.56	-621.45	145.17	393.96	-597.23	169.81	315.61	-643.37	78.607	333.37	-613	64.364	303.66	-622.97	50.434	366.16	-477.92	129.53	441.89	-448.67	175.96	334.24	-410.53	215.1	393.88	-1024	717.42	149.55	-996.19	624.9	203.81	-1066	638.81	170.13	-958.42	709.97	179.49	-1116	550.17	189.57	-1082	549.84	307.78	-1227.6	340.53	213.91	-1180.6	264.66	213.62	-1250	273.41	233.92	-1162.3	331.53	198.68	-1241.8	125.86	237.67	-1221.7	144.49	324.31	-1327	98.219	285.35	-1323.5	67.876	315.64	-1323.4	73.582	253.92	-1149	46.742	209.73	-1125.8	41.162	328.47	-1053.2	43.86	271.52	-1052.3	1532	298.13	-1106.7	1257	295.87
134	0.55417	-854.55	1276	309.88	-993.56	1480.4	474.08	-996.88	1479	124.02	-942.75	1796	297.76	-900.22	1037	428.03	-889.17	1035.5	174.49	NaN	NaN	NaN	-1095.3	1060	252.37	-950.91	958.72	476.79	-998.47	971.14	118.81	-988.22	1106.9	460.21	-963.49	1110	139.52	-1111.9	1021.9	293.93	-872.86	723.74	469.06	-787.3	670.58	433.1	-848.88	639.02	443.97	-806.86	757.75	450.77	-784.02	550.65	432.37	-769.78	559.21	302.59	-734.41	326.13	425.49	-649.79	292.7	417.28	-704.45	254.84	410.46	-681.33	362.42	429.82	-613.05	145.68	393.09	-588.85	170.71	314.85	-634	78.87	332.32	-603.37	65.079	302.64	-613.31	50.861	365.1	-469.4	131.68	441.55	-440.43	178.66	333.95	-402.91	218.14	393.82	-1020	717.14	149.52	-992.42	624.46	203.62	-1062.3	638.66	170.07	-954.37	709.42	179.31	-1112.6	550.21	189.53	-1078.4	549.63	307.65	-1225.4	341.24	213.78	-1179	265.04	213.51	-1248.3	274.28	233.79	-1160.3	331.8	198.59	-1241.1	126.67	237.53	-1220.9	145.2	324.17	-1326.5	99.525	285.18	-1323.2	69.179	315.52	-1323	74.775	253.79	-1148.9	46.765	209.66	-1125.7	41.313	328.4	-1053.1	43.763	271.48	-1046.9	1531.4	298.32	-1101.1	1256.3	296.06
